<?xml version="1.0" encoding="utf-8"?>
<!-- Generator: Adobe Illustrator 16.0.0, SVG Export Plug-In . SVG Version: 6.00 Build 0)  -->
<!DOCTYPE svg PUBLIC "-//W3C//DTD SVG 1.1//EN" "http://www.w3.org/Graphics/SVG/1.1/DTD/svg11.dtd">
<svg version="1.1" id="Capa_1" xmlns="http://www.w3.org/2000/svg" xmlns:xlink="http://www.w3.org/1999/xlink" x="0px" y="0px"
	 width="612px" height="792px" viewBox="0 0 612 792" enable-background="new 0 0 612 792" xml:space="preserve">
<g>
	<path fill="#FFFFFF" d="M31.655,543.725c5.824,0,10.552-4.717,10.552-10.552c0-17.453,14.203-31.655,31.655-31.655
		c17.452,0,31.655,14.202,31.655,31.655c0,5.835,4.728,10.552,10.552,10.552c5.825,0,10.552-4.717,10.552-10.552
		c0-29.092-23.667-52.759-52.758-52.759c-29.091,0-52.759,23.667-52.759,52.759C21.104,539.008,25.831,543.725,31.655,543.725z"/>
	<path fill="#FFFFFF" d="M31.655,480.414c5.824,0,10.552-4.717,10.552-10.552c0-17.453,14.203-31.655,31.655-31.655
		c17.452,0,31.655,14.202,31.655,31.655c0,5.835,4.728,10.552,10.552,10.552c5.825,0,10.552-4.717,10.552-10.552
		c0-29.092-23.667-52.759-52.758-52.759c-29.091,0-52.759,23.667-52.759,52.759C21.104,475.697,25.831,480.414,31.655,480.414z"/>
	<path fill="#FFFFFF" d="M31.655,417.104c5.824,0,10.552-4.717,10.552-10.552c0-17.453,14.203-31.655,31.655-31.655
		c17.452,0,31.655,14.203,31.655,31.655c0,5.835,4.728,10.552,10.552,10.552c5.825,0,10.552-4.717,10.552-10.552
		c0-29.091-23.667-52.759-52.758-52.759c-29.091,0-52.759,23.667-52.759,52.759C21.104,412.387,25.831,417.104,31.655,417.104z"/>
	<path fill="#FFFFFF" d="M31.655,353.793c5.824,0,10.552-4.716,10.552-10.552c0-17.452,14.203-31.655,31.655-31.655
		c17.452,0,31.655,14.203,31.655,31.655c0,5.835,4.728,10.552,10.552,10.552c5.825,0,10.552-4.716,10.552-10.552
		c0-29.091-23.667-52.758-52.758-52.758c-29.091,0-52.759,23.667-52.759,52.758C21.104,349.077,25.831,353.793,31.655,353.793z"/>
	<path fill="#FFFFFF" d="M42.207,279.931c0-17.453,14.203-31.655,31.655-31.655c17.452,0,31.655,14.203,31.655,31.655
		c0,5.835,4.728,10.552,10.552,10.552c5.825,0,10.552-4.717,10.552-10.552c0-29.091-23.667-52.759-52.758-52.759
		c-29.091,0-52.759,23.667-52.759,52.759c0,5.835,4.727,10.552,10.552,10.552C37.479,290.483,42.207,285.766,42.207,279.931z"/>
	<path fill="#FFFFFF" d="M548.722,90.042h-21.136h-73.861H200.483V90H63.311v74.928c-24.047,4.907-42.207,26.21-42.207,51.693
		c0,5.835,4.727,10.552,10.552,10.552c5.824,0,10.552-4.716,10.552-10.552c0-17.453,14.203-31.655,31.655-31.655
		c17.452,0,31.655,14.203,31.655,31.655c0,5.835,4.728,10.552,10.552,10.552c5.825,0,10.552-4.716,10.552-10.552
		c0-25.482-18.16-46.786-42.207-51.693v-53.824h94.966v569.793H84.414v-42.207v-31.655c0-5.835-4.727-10.552-10.551-10.552
		c-5.825,0-10.552,4.717-10.552,10.552v19.151c-12.251-4.368-21.104-15.965-21.104-29.703c0-17.452,14.203-31.655,31.655-31.655
		c17.452,0,31.655,14.203,31.655,31.655c0,5.836,4.728,10.552,10.552,10.552c5.825,0,10.552-4.716,10.552-10.552
		c0-29.091-23.667-52.758-52.758-52.758c-29.091,0-52.759,23.667-52.759,52.758c0,25.482,18.16,46.787,42.207,51.693V702h116.069
		h21.104h253.242h73.861h21.136c23.256,0,42.175-18.919,42.175-42.165V132.207C590.896,108.961,571.978,90.042,548.722,90.042z
		 M200.483,680.896V111.146h253.242v569.751H200.483z M474.827,680.896V111.146h31.655v569.751H474.827z M569.793,659.835
		c0,11.607-9.454,21.062-21.071,21.062h-21.136V111.146h21.136c11.617,0,21.071,9.444,21.071,21.062V659.835z"/>
</g>
</svg>
